<svg width="26" height="26" viewBox="0 0 26 26" fill="none" xmlns="http://www.w3.org/2000/svg">
<g clip-path="url(#clip0_69_145)">
<path d="M16.2726 12.5149L8.71861 20.3296C8.52934 20.5315 8.42706 20.7997 8.43386 21.0763C8.44066 21.353 8.55599 21.6158 8.75495 21.8081C8.95391 22.0005 9.22052 22.1068 9.49723 22.1042C9.77393 22.1016 10.0385 21.9903 10.2338 21.7943L18.5201 13.2219C18.6163 13.1224 18.692 13.005 18.7427 12.8763C18.7935 12.7475 18.8185 12.6101 18.8161 12.4717C18.8138 12.3333 18.7842 12.1968 18.7291 12.0699C18.6739 11.9429 18.5943 11.8281 18.4948 11.732L9.92242 3.4457C9.72056 3.25643 9.45236 3.15415 9.17573 3.16095C8.8991 3.16775 8.63624 3.28308 8.44392 3.48204C8.25161 3.681 8.14526 3.94762 8.14785 4.22432C8.15044 4.50102 8.26176 4.7656 8.45777 4.96092L16.2726 12.5149Z" fill="white"/>
<path d="M23.1194 12.64L15.5654 20.4548C15.3761 20.6566 15.2739 20.9248 15.2807 21.2015C15.2875 21.4781 15.4028 21.7409 15.6018 21.9333C15.8007 22.1256 16.0673 22.2319 16.344 22.2293C16.6207 22.2267 16.8853 22.1154 17.0806 21.9194L25.3669 13.347C25.4631 13.2476 25.5388 13.1301 25.5896 13.0014C25.6404 12.8727 25.6653 12.7352 25.6629 12.5968C25.6606 12.4585 25.631 12.3219 25.5759 12.195C25.5207 12.0681 25.4411 11.9532 25.3416 11.8571L16.7692 3.57082C16.5674 3.38155 16.2992 3.27927 16.0225 3.28607C15.7459 3.29287 15.483 3.40821 15.2907 3.60716C15.0984 3.80612 14.9921 4.07274 14.9947 4.34944C14.9972 4.62614 15.1086 4.89072 15.3046 5.08605L23.1194 12.64Z" fill="white"/>
<path d="M9.42577 12.7651L1.8718 20.5799C1.68253 20.7817 1.58025 21.05 1.58705 21.3266C1.59385 21.6032 1.70918 21.8661 1.90814 22.0584C2.1071 22.2507 2.37372 22.357 2.65042 22.3545C2.92712 22.3519 3.1917 22.2405 3.38702 22.0445L11.6733 13.4721C11.7695 13.3727 11.8451 13.2552 11.8959 13.1265C11.9467 12.9978 11.9717 12.8603 11.9693 12.7219C11.967 12.5836 11.9374 12.447 11.8823 12.3201C11.8271 12.1932 11.7475 12.0784 11.648 11.9822L3.07562 3.69594C2.87376 3.50668 2.60555 3.4044 2.32892 3.4112C2.05229 3.41799 1.78943 3.53333 1.59712 3.73229C1.4048 3.93125 1.29845 4.19786 1.30104 4.47456C1.30363 4.75127 1.41496 5.01585 1.61097 5.21117L9.42577 12.7651Z" fill="white"/>
</g>
<defs>
<clipPath id="clip0_69_145">
<rect width="25.2916" height="25.2916" fill="white" transform="translate(26 25.288) rotate(179.028)"/>
</clipPath>
</defs>
</svg>
