<svg width="375" height="1098" viewBox="0 0 375 1098" fill="none" xmlns="http://www.w3.org/2000/svg">
<g filter="url(#filter0_f_0_1)">
<ellipse cx="277" cy="689.5" rx="134" ry="39.5" fill="#00102F"/>
<ellipse cx="277" cy="689.5" rx="134" ry="39.5" fill="#000206"/>
<ellipse cx="277" cy="689.5" rx="134" ry="39.5" fill="#000206"/>
</g>
<g filter="url(#filter1_f_0_1)">
<ellipse cx="188.096" cy="50.9151" rx="151" ry="58" transform="rotate(178.89 188.096 50.9151)" fill="#000001"/>
<ellipse cx="188.096" cy="50.9151" rx="151" ry="58" transform="rotate(178.89 188.096 50.9151)" fill="black"/>
<ellipse cx="188.096" cy="50.9151" rx="151" ry="58" transform="rotate(178.89 188.096 50.9151)" fill="#000002"/>
</g>
<g filter="url(#filter2_f_0_1)">
<ellipse cx="44.0956" cy="69.9153" rx="151" ry="58" transform="rotate(178.89 44.0956 69.9153)" fill="#000001"/>
<ellipse cx="44.0956" cy="69.9153" rx="151" ry="58" transform="rotate(178.89 44.0956 69.9153)" fill="black"/>
<ellipse cx="44.0956" cy="69.9153" rx="151" ry="58" transform="rotate(178.89 44.0956 69.9153)" fill="#000002"/>
</g>
<g filter="url(#filter3_f_0_1)">
<ellipse cx="387.096" cy="111.915" rx="151" ry="58" transform="rotate(178.89 387.096 111.915)" fill="#000621"/>
<ellipse cx="387.096" cy="111.915" rx="151" ry="58" transform="rotate(178.89 387.096 111.915)" fill="#000621"/>
<ellipse cx="387.096" cy="111.915" rx="151" ry="58" transform="rotate(178.89 387.096 111.915)" fill="#000107"/>
</g>
<g filter="url(#filter4_f_0_1)">
<ellipse cx="586.096" cy="172.915" rx="151" ry="58" transform="rotate(178.89 586.096 172.915)" fill="#000621"/>
<ellipse cx="586.096" cy="172.915" rx="151" ry="58" transform="rotate(178.89 586.096 172.915)" fill="#000621"/>
<ellipse cx="586.096" cy="172.915" rx="151" ry="58" transform="rotate(178.89 586.096 172.915)" fill="#000107"/>
</g>
<g filter="url(#filter5_f_0_1)">
<ellipse cx="353" cy="736.5" rx="244" ry="161.5" fill="#010724"/>
<path d="M596.5 736.5C596.5 780.876 569.324 821.114 525.258 850.281C481.195 879.445 420.295 897.5 353 897.5C285.705 897.5 224.804 879.445 180.742 850.281C136.675 821.114 109.5 780.876 109.5 736.5C109.5 692.124 136.675 651.886 180.742 622.719C224.804 593.555 285.705 575.5 353 575.5C420.295 575.5 481.195 593.555 525.258 622.719C569.324 651.886 596.5 692.124 596.5 736.5Z" stroke="black"/>
</g>
<g filter="url(#filter6_f_0_1)">
<ellipse cx="244" cy="696.5" rx="244" ry="21.5" fill="#010724"/>
<path d="M487.5 696.5C487.5 697.035 487.193 697.643 486.413 698.32C485.635 698.995 484.449 699.683 482.845 700.374C479.641 701.753 474.887 703.095 468.723 704.379C456.405 706.945 438.561 709.26 416.49 711.205C372.354 715.094 311.369 717.5 244 717.5C176.631 717.5 115.646 715.094 71.5098 711.205C49.4388 709.26 31.5951 706.945 19.2767 704.379C13.1135 703.095 8.35874 701.753 5.15496 700.374C3.551 699.683 2.36477 698.995 1.58742 698.32C0.806574 697.643 0.5 697.035 0.5 696.5C0.5 695.964 0.806574 695.357 1.58742 694.679C2.36477 694.005 3.551 693.317 5.15496 692.626C8.35874 691.247 13.1135 689.905 19.2767 688.621C31.5951 686.054 49.4388 683.74 71.5098 681.795C115.646 677.906 176.631 675.5 244 675.5C311.369 675.5 372.354 677.906 416.49 681.795C438.561 683.74 456.405 686.054 468.723 688.621C474.887 689.905 479.641 691.247 482.845 692.626C484.449 693.317 485.635 694.005 486.413 694.679C487.193 695.357 487.5 695.964 487.5 696.5Z" stroke="black"/>
</g>
<g filter="url(#filter7_f_0_1)">
<ellipse cx="115" cy="712.5" rx="244" ry="21.5" fill="#010724"/>
<path d="M358.5 712.5C358.5 713.035 358.193 713.643 357.413 714.32C356.635 714.995 355.449 715.683 353.845 716.374C350.641 717.753 345.887 719.095 339.723 720.379C327.405 722.945 309.561 725.26 287.49 727.205C243.354 731.094 182.369 733.5 115 733.5C47.6311 733.5 -13.3536 731.094 -57.4902 727.205C-79.5612 725.26 -97.4049 722.945 -109.723 720.379C-115.887 719.095 -120.641 717.753 -123.845 716.374C-125.449 715.683 -126.635 714.995 -127.413 714.32C-128.193 713.643 -128.5 713.035 -128.5 712.5C-128.5 711.964 -128.193 711.357 -127.413 710.679C-126.635 710.005 -125.449 709.317 -123.845 708.626C-120.641 707.247 -115.887 705.905 -109.723 704.621C-97.4049 702.054 -79.5612 699.74 -57.4902 697.795C-13.3536 693.906 47.6311 691.5 115 691.5C182.369 691.5 243.354 693.906 287.49 697.795C309.561 699.74 327.405 702.054 339.723 704.621C345.887 705.905 350.641 707.247 353.845 708.626C355.449 709.317 356.635 710.005 357.413 710.679C358.193 711.357 358.5 711.964 358.5 712.5Z" stroke="black"/>
</g>
<g filter="url(#filter8_f_0_1)">
<ellipse cx="70" cy="686.5" rx="244" ry="21.5" fill="#010724"/>
<path d="M313.5 686.5C313.5 687.036 313.193 687.643 312.413 688.321C311.635 688.995 310.449 689.683 308.845 690.374C305.641 691.753 300.887 693.095 294.723 694.379C282.405 696.946 264.561 699.26 242.49 701.205C198.354 705.094 137.369 707.5 70 707.5C2.6311 707.5 -58.3536 705.094 -102.49 701.205C-124.561 699.26 -142.405 696.946 -154.723 694.379C-160.887 693.095 -165.641 691.753 -168.845 690.374C-170.449 689.683 -171.635 688.995 -172.413 688.321C-173.193 687.643 -173.5 687.036 -173.5 686.5C-173.5 685.964 -173.193 685.357 -172.413 684.679C-171.635 684.005 -170.449 683.317 -168.845 682.626C-165.641 681.247 -160.887 679.905 -154.723 678.621C-142.405 676.054 -124.561 673.74 -102.49 671.795C-58.3536 667.906 2.6311 665.5 70 665.5C137.369 665.5 198.354 667.906 242.49 671.795C264.561 673.74 282.405 676.054 294.723 678.621C300.887 679.905 305.641 681.247 308.845 682.626C310.449 683.317 311.635 684.005 312.413 684.679C313.193 685.357 313.5 685.964 313.5 686.5Z" stroke="black"/>
</g>
<g filter="url(#filter9_f_0_1)">
<ellipse cx="100" cy="695.5" rx="244" ry="21.5" fill="#010724"/>
<path d="M343.5 695.5C343.5 696.036 343.193 696.643 342.413 697.321C341.635 697.995 340.449 698.683 338.845 699.374C335.641 700.753 330.887 702.095 324.723 703.379C312.405 705.946 294.561 708.26 272.49 710.205C228.354 714.094 167.369 716.5 100 716.5C32.6311 716.5 -28.3536 714.094 -72.4902 710.205C-94.5612 708.26 -112.405 705.946 -124.723 703.379C-130.887 702.095 -135.641 700.753 -138.845 699.374C-140.449 698.683 -141.635 697.995 -142.413 697.321C-143.193 696.643 -143.5 696.036 -143.5 695.5C-143.5 694.964 -143.193 694.357 -142.413 693.679C-141.635 693.005 -140.449 692.317 -138.845 691.626C-135.641 690.247 -130.887 688.905 -124.723 687.621C-112.405 685.054 -94.5612 682.74 -72.4902 680.795C-28.3536 676.906 32.6311 674.5 100 674.5C167.369 674.5 228.354 676.906 272.49 680.795C294.561 682.74 312.405 685.054 324.723 687.621C330.887 688.905 335.641 690.247 338.845 691.626C340.449 692.317 341.635 693.005 342.413 693.679C343.193 694.357 343.5 694.964 343.5 695.5Z" stroke="black"/>
</g>
<g filter="url(#filter10_f_0_1)">
<ellipse cx="161" cy="701.5" rx="134" ry="22.5" fill="#001030"/>
</g>
<defs>
<filter id="filter0_f_0_1" x="93" y="600" width="368" height="179" filterUnits="userSpaceOnUse" color-interpolation-filters="sRGB">
<feFlood flood-opacity="0" result="BackgroundImageFix"/>
<feBlend mode="normal" in="SourceGraphic" in2="BackgroundImageFix" result="shape"/>
<feGaussianBlur stdDeviation="25" result="effect1_foregroundBlur_0_1"/>
</filter>
<filter id="filter1_f_0_1" x="-262.88" y="-307.149" width="901.952" height="716.128" filterUnits="userSpaceOnUse" color-interpolation-filters="sRGB">
<feFlood flood-opacity="0" result="BackgroundImageFix"/>
<feBlend mode="normal" in="SourceGraphic" in2="BackgroundImageFix" result="shape"/>
<feGaussianBlur stdDeviation="150" result="effect1_foregroundBlur_0_1"/>
</filter>
<filter id="filter2_f_0_1" x="-406.88" y="-288.149" width="901.952" height="716.128" filterUnits="userSpaceOnUse" color-interpolation-filters="sRGB">
<feFlood flood-opacity="0" result="BackgroundImageFix"/>
<feBlend mode="normal" in="SourceGraphic" in2="BackgroundImageFix" result="shape"/>
<feGaussianBlur stdDeviation="150" result="effect1_foregroundBlur_0_1"/>
</filter>
<filter id="filter3_f_0_1" x="-63.8803" y="-246.149" width="901.952" height="716.128" filterUnits="userSpaceOnUse" color-interpolation-filters="sRGB">
<feFlood flood-opacity="0" result="BackgroundImageFix"/>
<feBlend mode="normal" in="SourceGraphic" in2="BackgroundImageFix" result="shape"/>
<feGaussianBlur stdDeviation="150" result="effect1_foregroundBlur_0_1"/>
</filter>
<filter id="filter4_f_0_1" x="135.12" y="-185.149" width="901.952" height="716.128" filterUnits="userSpaceOnUse" color-interpolation-filters="sRGB">
<feFlood flood-opacity="0" result="BackgroundImageFix"/>
<feBlend mode="normal" in="SourceGraphic" in2="BackgroundImageFix" result="shape"/>
<feGaussianBlur stdDeviation="150" result="effect1_foregroundBlur_0_1"/>
</filter>
<filter id="filter5_f_0_1" x="-91" y="375" width="888" height="723" filterUnits="userSpaceOnUse" color-interpolation-filters="sRGB">
<feFlood flood-opacity="0" result="BackgroundImageFix"/>
<feBlend mode="normal" in="SourceGraphic" in2="BackgroundImageFix" result="shape"/>
<feGaussianBlur stdDeviation="100" result="effect1_foregroundBlur_0_1"/>
</filter>
<filter id="filter6_f_0_1" x="-200" y="475" width="888" height="443" filterUnits="userSpaceOnUse" color-interpolation-filters="sRGB">
<feFlood flood-opacity="0" result="BackgroundImageFix"/>
<feBlend mode="normal" in="SourceGraphic" in2="BackgroundImageFix" result="shape"/>
<feGaussianBlur stdDeviation="100" result="effect1_foregroundBlur_0_1"/>
</filter>
<filter id="filter7_f_0_1" x="-329" y="491" width="888" height="443" filterUnits="userSpaceOnUse" color-interpolation-filters="sRGB">
<feFlood flood-opacity="0" result="BackgroundImageFix"/>
<feBlend mode="normal" in="SourceGraphic" in2="BackgroundImageFix" result="shape"/>
<feGaussianBlur stdDeviation="100" result="effect1_foregroundBlur_0_1"/>
</filter>
<filter id="filter8_f_0_1" x="-374" y="465" width="888" height="443" filterUnits="userSpaceOnUse" color-interpolation-filters="sRGB">
<feFlood flood-opacity="0" result="BackgroundImageFix"/>
<feBlend mode="normal" in="SourceGraphic" in2="BackgroundImageFix" result="shape"/>
<feGaussianBlur stdDeviation="100" result="effect1_foregroundBlur_0_1"/>
</filter>
<filter id="filter9_f_0_1" x="-344" y="474" width="888" height="443" filterUnits="userSpaceOnUse" color-interpolation-filters="sRGB">
<feFlood flood-opacity="0" result="BackgroundImageFix"/>
<feBlend mode="normal" in="SourceGraphic" in2="BackgroundImageFix" result="shape"/>
<feGaussianBlur stdDeviation="100" result="effect1_foregroundBlur_0_1"/>
</filter>
<filter id="filter10_f_0_1" x="-23" y="629" width="368" height="145" filterUnits="userSpaceOnUse" color-interpolation-filters="sRGB">
<feFlood flood-opacity="0" result="BackgroundImageFix"/>
<feBlend mode="normal" in="SourceGraphic" in2="BackgroundImageFix" result="shape"/>
<feGaussianBlur stdDeviation="25" result="effect1_foregroundBlur_0_1"/>
</filter>
</defs>
</svg>
