<svg width="14.000076" height="10.402344" viewBox="0 0 14.0001 10.4023" fill="none" xmlns="http://www.w3.org/2000/svg" xmlns:xlink="http://www.w3.org/1999/xlink">
	<desc>
			Created with Pixso.
	</desc>
	<defs/>
	<path id="Vector" d="M3.97 9.86L0.5 6.39C0.34 6.23 0.21 6.04 0.13 5.83C0.04 5.62 0 5.4 0 5.18C0 4.95 0.04 4.73 0.13 4.52C0.21 4.31 0.34 4.12 0.5 3.96C0.82 3.64 1.26 3.46 1.71 3.46C2.16 3.46 2.6 3.64 2.92 3.96L5.1 6.14C5.14 6.18 5.2 6.2 5.26 6.2C5.32 6.2 5.38 6.18 5.43 6.14L11.07 0.5C11.39 0.18 11.83 0 12.28 0C12.73 0 13.17 0.18 13.49 0.5C13.65 0.66 13.78 0.84 13.86 1.05C13.95 1.26 14 1.48 14 1.71C14 1.93 13.95 2.16 13.86 2.37C13.78 2.57 13.65 2.76 13.49 2.92L6.55 9.86C6.21 10.21 5.75 10.4 5.26 10.4C4.78 10.4 4.31 10.21 3.97 9.86Z" fill="#FFFFFF" fill-opacity="1.000000" fill-rule="nonzero"/>
</svg>
