<svg width="10.036396" height="10.036133" viewBox="0 0 10.0364 10.0361" fill="none" xmlns="http://www.w3.org/2000/svg" xmlns:xlink="http://www.w3.org/1999/xlink">
	<desc>
			Created with Pixso.
	</desc>
	<defs/>
	<path id="Close" d="M7.54 0.44L5.01 2.97L2.48 0.44C2.35 0.3 2.19 0.19 2.01 0.11C1.84 0.04 1.65 0 1.46 0C1.26 -0.01 1.07 0.03 0.89 0.1C0.72 0.18 0.55 0.28 0.42 0.42C0.28 0.56 0.17 0.72 0.1 0.9C0.03 1.07 -0.01 1.26 9.15e-5 1.46C0 1.65 0.04 1.84 0.11 2.02C0.19 2.19 0.3 2.35 0.44 2.49L2.97 5.02L0.44 7.54C0.18 7.82 0.03 8.18 0.04 8.56C0.04 8.94 0.19 9.3 0.46 9.57C0.73 9.84 1.09 9.99 1.47 10C1.85 10 2.22 9.85 2.49 9.59L5.01 7.06L7.54 9.59C7.68 9.73 7.84 9.84 8.01 9.91C8.19 9.99 8.38 10.03 8.57 10.03C8.76 10.03 8.95 10 9.13 9.92C9.31 9.85 9.47 9.74 9.61 9.61C9.74 9.47 9.85 9.31 9.92 9.13C10 8.95 10.03 8.76 10.03 8.57C10.03 8.38 9.99 8.19 9.91 8.01C9.84 7.83 9.73 7.67 9.59 7.54L7.06 5.02L9.59 2.49C9.86 2.22 10 1.85 10 1.47C10 1.09 9.84 0.73 9.57 0.46C9.31 0.19 8.94 0.04 8.56 0.03C8.18 0.03 7.82 0.18 7.54 0.44Z" fill="#FFFFFF" fill-opacity="1.000000" fill-rule="evenodd"/>
</svg>
