<svg width="16" height="16" viewBox="0 0 16 16" fill="none" xmlns="http://www.w3.org/2000/svg">
<path d="M12.1625 8L15.1375 5.025C16.2875 3.875 16.2875 2.0125 15.1375 0.8625C13.9875 -0.2875 12.125 -0.2875 10.975 0.8625L8 3.8375L5.025 0.8625C3.875 -0.2875 2.0125 -0.2875 0.8625 0.8625C-0.2875 2.0125 -0.2875 3.875 0.8625 5.025L3.8375 8L0.8625 10.975C-0.2875 12.125 -0.2875 13.9875 0.8625 15.1375C2.0125 16.2875 3.875 16.2875 5.025 15.1375L8 12.1625L10.975 15.1375C12.125 16.2875 13.9875 16.2875 15.1375 15.1375C16.2875 13.9875 16.2875 12.125 15.1375 10.975L12.1625 8Z" fill="#FF4B4B"/>
</svg>
