<svg width="21" height="21" viewBox="0 0 21 21" fill="none" xmlns="http://www.w3.org/2000/svg">
<g clip-path="url(#clip0_186_31)">
<path d="M10.5 0C8.4233 0 6.39323 0.615814 4.66652 1.76957C2.9398 2.92332 1.59399 4.5632 0.79927 6.48182C0.00454956 8.40045 -0.203386 10.5116 0.201759 12.5484C0.606904 14.5852 1.60693 16.4562 3.07538 17.9246C4.54383 19.3931 6.41476 20.3931 8.45156 20.7982C10.4884 21.2034 12.5996 20.9955 14.5182 20.2007C16.4368 19.406 18.0767 18.0602 19.2304 16.3335C20.3842 14.6068 21 12.5767 21 10.5C21 7.71523 19.8938 5.04451 17.9246 3.07538C15.9555 1.10625 13.2848 0 10.5 0ZM14.637 12.0345H11.988V14.682C11.988 14.8774 11.9495 15.0709 11.8747 15.2514C11.8 15.432 11.6904 15.596 11.5522 15.7342C11.414 15.8723 11.25 15.982 11.0694 16.0567C10.8889 16.1315 10.6954 16.17 10.5 16.17C10.3046 16.17 10.1111 16.1315 9.93057 16.0567C9.75004 15.982 9.586 15.8723 9.44783 15.7342C9.30966 15.596 9.20005 15.432 9.12527 15.2514C9.05049 15.0709 9.012 14.8774 9.012 14.682V12.0345H6.36301C5.97634 12.0222 5.60963 11.86 5.34045 11.5821C5.07128 11.3043 4.92077 10.9326 4.92077 10.5457C4.92077 10.1589 5.07128 9.78721 5.34045 9.50936C5.60963 9.2315 5.97634 9.06927 6.36301 9.057H9.012V6.4095C9.012 6.21409 9.05049 6.0206 9.12527 5.84007C9.20005 5.65953 9.30966 5.4955 9.44783 5.35733C9.586 5.21915 9.75004 5.10955 9.93057 5.03477C10.1111 4.95999 10.3046 4.9215 10.5 4.9215C10.6954 4.9215 10.8889 4.95999 11.0694 5.03477C11.25 5.10955 11.414 5.21915 11.5522 5.35733C11.6904 5.4955 11.8 5.65953 11.8747 5.84007C11.9495 6.0206 11.988 6.21409 11.988 6.4095V9.057H14.637C15.0237 9.06927 15.3904 9.2315 15.6596 9.50936C15.9287 9.78721 16.0792 10.1589 16.0792 10.5457C16.0792 10.9326 15.9287 11.3043 15.6596 11.5821C15.3904 11.86 15.0237 12.0222 14.637 12.0345Z" fill="#008CFF"/>
</g>
<defs>
<clipPath id="clip0_186_31">
<rect width="21" height="21" fill="white"/>
</clipPath>
</defs>
</svg>
