<svg width="83" height="83" viewBox="0 0 83 83" fill="none" xmlns="http://www.w3.org/2000/svg">
<path d="M48.7949 0H34.2051C30.1825 0 26.9102 3.27234 26.9102 7.29492C26.9102 11.3175 30.1825 14.5898 34.2051 14.5898H48.7949C52.8175 14.5898 56.0898 11.3175 56.0898 7.29492C56.0898 3.27234 52.8175 0 48.7949 0Z" fill="white"/>
<path d="M65.8164 4.86328H60.707C60.8674 5.64935 60.9531 6.46233 60.9531 7.29492C60.9531 13.9986 55.4986 19.4531 48.7949 19.4531H34.2051C27.5014 19.4531 22.0469 13.9986 22.0469 7.29492C22.0469 6.46233 22.1326 5.64935 22.293 4.86328H17.1836C13.161 4.86328 9.88867 8.13562 9.88867 12.1582V75.7051C9.88867 79.7277 13.161 83 17.1836 83H65.8164C69.839 83 73.1113 79.7277 73.1113 75.7051V12.1582C73.1113 8.13562 69.839 4.86328 65.8164 4.86328ZM33.4929 67.6978L26.198 74.9928C25.2482 75.9426 23.7093 75.9426 22.7595 74.9928L20.3279 72.5611C19.3777 71.6112 19.3777 70.0724 20.3277 69.1226C21.2775 68.1728 22.8164 68.1728 23.7662 69.1226L24.4787 69.8351L30.0544 64.2593C31.0042 63.3095 32.5431 63.3095 33.4929 64.2593C34.4427 65.2091 34.4427 66.748 33.4929 67.6978ZM33.4929 48.0826L26.198 55.3775C25.2482 56.3273 23.7093 56.3273 22.7595 55.3775L20.3279 52.9459C19.3777 51.9959 19.3777 50.4572 20.3277 49.5074C21.2775 48.5576 22.8164 48.5576 23.7662 49.5074L24.4787 50.2199L30.0544 44.6441C31.0042 43.6943 32.5431 43.6943 33.4929 44.6441C34.4427 45.5939 34.4427 47.1328 33.4929 48.0826ZM33.4929 28.4674L26.198 35.7623C25.723 36.2373 25.1009 36.4748 24.4788 36.4748C23.8568 36.4748 23.2345 36.2373 22.7597 35.7623L20.328 33.3307C19.3777 32.3807 19.3777 30.842 20.3277 29.8922C21.2775 28.9424 22.8164 28.9424 23.7662 29.8922L24.4787 30.6046L30.0544 25.0289C31.0042 24.0791 32.5431 24.0791 33.4929 25.0289C34.4427 25.9787 34.4427 27.5176 33.4929 28.4674ZM60.9531 73.2734H41.5C40.156 73.2734 39.0684 72.1858 39.0684 70.8418C39.0684 69.4977 40.156 68.4102 41.5 68.4102H60.9531C62.2972 68.4102 63.3848 69.4977 63.3848 70.8418C63.3848 72.1858 62.2972 73.2734 60.9531 73.2734ZM60.9531 53.6582H41.5C40.156 53.6582 39.0684 52.5706 39.0684 51.2266C39.0684 49.8825 40.156 48.7949 41.5 48.7949H60.9531C62.2972 48.7949 63.3848 49.8825 63.3848 51.2266C63.3848 52.5706 62.2972 53.6582 60.9531 53.6582ZM60.9531 34.043H41.5C40.156 34.043 39.0684 32.9554 39.0684 31.6113C39.0684 30.2673 40.156 29.1797 41.5 29.1797H60.9531C62.2972 29.1797 63.3848 30.2673 63.3848 31.6113C63.3848 32.9554 62.2972 34.043 60.9531 34.043Z" fill="white"/>
</svg>
