<svg width="86" height="86" viewBox="0 0 86 86" fill="none" xmlns="http://www.w3.org/2000/svg">
<g clip-path="url(#clip0_2003_264)">
<path d="M65.8438 80.9611H58.8537C57.7493 80.3097 55.5745 78.1423 53.2941 70.9332C53.128 70.4078 52.9715 69.8856 52.8237 69.3711H33.3122C33.1693 69.8683 33.0181 70.3729 32.8579 70.8811C30.5722 78.1312 28.3896 80.3079 27.282 80.9609H20.1562C18.7648 80.9609 17.6367 82.089 17.6367 83.4805C17.6367 84.8719 18.7648 86 20.1562 86H65.8438C67.2352 86 68.3633 84.8719 68.3633 83.4805C68.3633 82.089 67.2352 80.9611 65.8438 80.9611Z" fill="white"/>
<path d="M86 44.5117V7.55859C86 3.39079 82.6092 0 78.4414 0H7.55859C3.39079 0 0 3.39079 0 7.55859V44.5117H86ZM32.25 14.9492H53.75C55.1415 14.9492 56.2695 16.0773 56.2695 17.4688C56.2695 18.8602 55.1415 19.9883 53.75 19.9883H32.25C30.8585 19.9883 29.7305 18.8602 29.7305 17.4688C29.7305 16.0773 30.8585 14.9492 32.25 14.9492ZM24.1875 25.6992H61.8125C63.204 25.6992 64.332 26.8273 64.332 28.2188C64.332 29.6102 63.204 30.7383 61.8125 30.7383H24.1875C22.796 30.7383 21.668 29.6102 21.668 28.2188C21.668 26.8273 22.796 25.6992 24.1875 25.6992Z" fill="white"/>
<path d="M0 49.5508V56.7734C0 60.9412 3.39079 64.332 7.55859 64.332H70.043V57.7812C70.043 56.3898 71.171 55.2617 72.5625 55.2617C73.954 55.2617 75.082 56.3898 75.082 57.7812V64.332H78.4414C82.6092 64.332 86 60.9412 86 56.7734V49.5508H0Z" fill="white"/>
</g>
<defs>
<clipPath id="clip0_2003_264">
<rect width="86" height="86" fill="white"/>
</clipPath>
</defs>
</svg>
