<svg width="85" height="87" viewBox="0 0 85 87" fill="none" xmlns="http://www.w3.org/2000/svg">
<g clip-path="url(#clip0_94_207)">
<path d="M61.529 81.6646V74.828C61.529 73.9034 60.7858 73.1538 59.8689 73.1538H6.03932C4.66404 73.1538 3.54908 74.2782 3.54908 75.6652V81.6641C3.54908 84.3455 5.70463 86.5194 8.36354 86.5194H66.343C63.6843 86.5194 61.529 84.3459 61.529 81.6646Z" fill="white"/>
<path d="M78.9607 5.59814C77.5854 5.59814 76.4705 6.72256 76.4705 8.10949V9.00403V13.9693V19.187H78.9607C80.336 19.187 81.4509 18.0626 81.4509 16.6757V13.9691C81.4509 13.9691 81.4509 9.47265 81.4509 8.10932C81.4509 6.746 80.1186 5.59814 78.9607 5.59814Z" fill="white"/>
<path d="M13.51 7.49575V68.1312H57.1877H61.2543H64.0193C65.3945 68.1312 66.5095 69.2556 66.5095 70.6425V78.9854C66.5095 79.032 66.514 79.0772 66.5165 79.123V79.5983C66.5165 80.9506 67.5469 82.1142 68.8864 82.1778C70.3164 82.2458 71.4969 81.0966 71.4969 79.6693L71.49 5.65577C71.49 2.97432 73.6447 0.800335 76.3036 0.798828H20.1506C16.4832 0.798828 13.51 3.79721 13.51 7.49575ZM44.9902 19.5531H46.5533V17.9766C46.5533 16.5897 47.6682 15.4653 49.0435 15.4653C50.4188 15.4653 51.5337 16.5897 51.5337 17.9766V19.5531H53.0969C54.4722 19.5531 55.5872 20.6775 55.5872 22.0644C55.5872 23.4513 54.4722 24.5758 53.0969 24.5758H51.5337V26.152C51.5337 27.539 50.4188 28.6634 49.0435 28.6634C47.6682 28.6634 46.5533 27.539 46.5533 26.152V24.5758H44.9902C43.615 24.5758 42.5 23.4513 42.5 22.0644C42.5 20.6775 43.615 19.5531 44.9902 19.5531ZM24.7084 35.3012L30.1322 17.3628C30.4529 16.3337 31.7651 15.8338 33.1065 15.8338C34.4477 15.8338 35.7599 16.3335 36.0807 17.3628L41.5336 35.3012C41.5628 35.4187 41.5921 35.5363 41.5921 35.6247C41.5921 36.7128 39.9299 37.5067 38.6762 37.5067C37.947 37.5067 37.364 37.2714 37.189 36.6538L36.1975 32.978H30.0447L29.0532 36.6538C28.8783 37.2714 28.2952 37.5067 27.5661 37.5067C26.3121 37.5067 24.6502 36.7128 24.6502 35.6247C24.65 35.5363 24.6792 35.4187 24.7084 35.3012ZM25.9612 43.0439H59.0388C60.4141 43.0439 61.529 44.1683 61.529 45.5552C61.529 46.9421 60.4141 48.0666 59.0388 48.0666H25.9612C24.5859 48.0666 23.471 46.9421 23.471 45.5552C23.471 44.1681 24.5859 43.0439 25.9612 43.0439ZM25.9612 53.0892H59.0388C60.4141 53.0892 61.529 54.2137 61.529 55.6006C61.529 56.9875 60.4141 58.1119 59.0388 58.1119H25.9612C24.5859 58.1119 23.471 56.9875 23.471 55.6006C23.471 54.2135 24.5859 53.0892 25.9612 53.0892Z" fill="white"/>
<path d="M33.1065 21.5679L30.9779 29.4491H35.235L33.1065 21.5679Z" fill="white"/>
</g>
<defs>
<clipPath id="clip0_94_207">
<rect width="85" height="85.7206" fill="white" transform="translate(0 0.798828)"/>
</clipPath>
</defs>
</svg>
