<svg width="106" height="106" viewBox="0 0 106 106" fill="none" xmlns="http://www.w3.org/2000/svg">
<g clip-path="url(#clip0_2003_269)">
<path d="M21.7383 81.1562C28.027 81.1562 33.125 76.0582 33.125 69.7695C33.125 63.4808 28.027 58.3828 21.7383 58.3828C15.4496 58.3828 10.3516 63.4808 10.3516 69.7695C10.3516 76.0582 15.4496 81.1562 21.7383 81.1562Z" fill="white"/>
<path d="M33.6904 82.6743C30.5497 85.5852 26.3482 87.3671 21.7383 87.3671C17.1283 87.3671 12.9268 85.5852 9.78616 82.6743C3.89446 86.5671 0 93.2493 0 100.824V102.894C0 104.609 1.39042 106 3.10547 106H40.3711C42.0861 106 43.4766 104.609 43.4766 102.894V100.824C43.4766 93.2493 39.5821 86.5671 33.6904 82.6743Z" fill="white"/>
<path d="M84.2617 81.1562C90.5504 81.1562 95.6484 76.0582 95.6484 69.7695C95.6484 63.4808 90.5504 58.3828 84.2617 58.3828C77.973 58.3828 72.875 63.4808 72.875 69.7695C72.875 76.0582 77.973 81.1562 84.2617 81.1562Z" fill="white"/>
<path d="M96.2138 82.6743C93.0732 85.5852 88.8717 87.3671 84.2617 87.3671C79.6518 87.3671 75.4503 85.5852 72.3096 82.6743C66.4179 86.5671 62.5234 93.2493 62.5234 100.824V102.894C62.5234 104.609 63.9139 106 65.6289 106H102.895C104.61 106 106 104.609 106 102.894V100.824C106 93.2493 102.106 86.5671 96.2138 82.6743Z" fill="white"/>
<path d="M102.895 20.7031H59.2109C57.4959 20.7031 56.1055 22.0935 56.1055 23.8086V48.6523C56.1055 50.3674 57.4959 51.7578 59.2109 51.7578H91.4536L100.954 59.3586C102.988 60.9852 106 59.5374 106 56.9336V23.8086C106 22.0935 104.61 20.7031 102.895 20.7031ZM90.4727 39.3359H71.6328C69.9178 39.3359 68.5273 37.9455 68.5273 36.2305C68.5273 34.5154 69.9178 33.125 71.6328 33.125H90.4727C92.1877 33.125 93.5781 34.5154 93.5781 36.2305C93.5781 37.9455 92.1877 39.3359 90.4727 39.3359Z" fill="white"/>
<path d="M84.8828 14.4922V3.10547C84.8828 1.39042 83.4924 0 81.7773 0H3.10547C1.39042 0 0 1.39042 0 3.10547V50.7227C0 53.3557 3.07089 54.7939 5.09359 53.1083L16.6517 43.4766H49.8945V23.8086C49.8945 18.6715 54.0739 14.4922 59.2109 14.4922H84.8828ZM40.5781 31.0547H15.5273C13.8123 31.0547 12.4219 29.6643 12.4219 27.9492C12.4219 26.2342 13.8123 24.8437 15.5273 24.8437H40.5781C42.2932 24.8437 43.6836 26.2342 43.6836 27.9492C43.6836 29.6643 42.2932 31.0547 40.5781 31.0547ZM40.5781 18.6328H15.5273C13.8123 18.6328 12.4219 17.2424 12.4219 15.5273C12.4219 13.8123 13.8123 12.4219 15.5273 12.4219H40.5781C42.2932 12.4219 43.6836 13.8123 43.6836 15.5273C43.6836 17.2424 42.2932 18.6328 40.5781 18.6328Z" fill="white"/>
</g>
<defs>
<clipPath id="clip0_2003_269">
<rect width="106" height="106" fill="white"/>
</clipPath>
</defs>
</svg>
