<svg width="88" height="77" viewBox="0 0 88 77" fill="none" xmlns="http://www.w3.org/2000/svg">
<g clip-path="url(#clip0_97_298)">
<path d="M82.4229 12.2375L44.6104 0.206262C44.1018 0.0445273 43.5556 0.0445273 43.047 0.206262L5.23454 12.2375C4.03674 12.6187 3.43793 13.6569 3.4381 14.6948V31.4633L0.132948 41.3791C-0.317193 42.7299 0.41276 44.1899 1.76353 44.6402C3.11395 45.0904 4.57437 44.3603 5.02468 43.0097L6.01623 40.0347L7.00795 43.0097C7.3682 44.0901 8.37384 44.7735 9.45356 44.7733C9.72374 44.7733 9.99874 44.7305 10.2691 44.6404C11.6199 44.1901 12.3498 42.7302 11.8997 41.3793L8.59435 31.4633V18.22L43.047 29.1822C43.5556 29.3441 44.1018 29.3441 44.6104 29.1822L82.4229 17.1509C84.8182 16.389 84.8182 12.9996 82.4229 12.2375Z" fill="white"/>
<path d="M84.794 65.2422H12.8906C11.4668 65.2422 10.3125 64.0879 10.3125 62.6641C10.3125 61.2402 11.4668 60.0859 12.8906 60.0859H84.7883C85.3145 57.1747 86.6241 55.039 87.4796 53.8984C88.7544 52.1989 87.5416 49.7734 85.4171 49.7734H12.8906C5.77139 49.7734 0 55.5448 0 62.6641C0 69.7833 5.77139 75.5547 12.8906 75.5547H85.4172C87.5418 75.5547 88.7544 73.1294 87.4797 71.4297C85.8605 69.2708 85.1194 67.0446 84.794 65.2422Z" fill="white"/>
<path d="M70.6406 24.6377L46.3451 31.8601C44.8302 32.313 43.17 32.313 41.6551 31.8601L17.3594 24.6377V35.3647L18.8812 36.0033C26.7205 39.2933 35.4066 41.0322 44 41.0322C52.5936 41.0322 61.2795 39.2933 69.1188 36.0033L70.6406 35.3647V24.6377Z" fill="white"/>
</g>
<defs>
<clipPath id="clip0_97_298">
<rect width="88" height="75.4696" fill="white" transform="translate(0 0.0849609)"/>
</clipPath>
</defs>
</svg>
