<svg width="100" height="100" viewBox="0 0 100 100" fill="none" xmlns="http://www.w3.org/2000/svg">
<g clip-path="url(#clip0_2003_283)">
<path d="M73.2422 40.625V30.4297L53.6074 39.2656C51.3387 40.2855 48.7158 40.31 46.3926 39.2656L26.7578 30.4297V40.625C26.7578 41.7676 27.4219 42.8066 28.459 43.2852L48.7715 52.6602C49.5482 53.0174 50.4426 53.0217 51.2285 52.6602L71.541 43.2852C72.5781 42.8066 73.2422 41.7676 73.2422 40.625Z" fill="white"/>
<path d="M17.548 19.8591L48.798 33.9216C49.5624 34.2658 50.4378 34.2658 51.2025 33.9216L82.4525 19.8591C84.7425 18.8287 84.7556 15.5664 82.4663 14.5222L51.2163 0.264404C50.4439 -0.0881348 49.5566 -0.0881348 48.7841 0.264404L17.5341 14.5222C15.2493 15.5644 15.2533 18.8265 17.548 19.8591Z" fill="white"/>
<path d="M39.4199 64.75C38.6562 62.9687 37.3027 61.4688 35.6094 60.5293L23.2969 53.6895C22.5801 53.291 21.7285 53.2109 20.9492 53.4707C19.2568 54.0348 17.7701 54.9893 16.5869 56.2371C15.2773 57.6182 14.9252 59.7486 16.0234 61.4707L21.6562 70.3223C22.5254 71.6875 22.123 73.4981 20.7578 74.3672C19.4021 75.2295 17.5859 74.8395 16.7129 73.4688L11.0801 64.6172C7.61523 59.1699 9.77285 52.035 15.4297 49.3164V38.4766C15.4297 32.0045 10.183 26.7578 3.71094 26.7578H2.92969C1.31172 26.7578 0 28.0695 0 29.6875V70.3125C0 70.877 0.164062 71.4316 0.470703 71.9043L10.6621 87.6387C10.9707 88.1152 11.1328 88.666 11.1328 89.2324V97.0703C11.1328 98.6883 12.4445 100 14.0625 100H40.625C42.243 100 43.5547 98.6883 43.5547 97.0703V77.4062C43.5547 75.4102 43.1562 73.4687 42.3711 71.6348L39.4199 64.75Z" fill="white"/>
<path d="M97.0703 26.7578H96.2891C89.817 26.7578 84.5703 32.0045 84.5703 38.4766V49.3164C90.2301 52.0365 92.3832 59.1725 88.9199 64.6172L83.2871 73.4688C82.4137 74.8402 80.5973 75.2291 79.2422 74.3672C77.877 73.4981 77.4746 71.6875 78.3438 70.3223L83.9766 61.4707C85.0686 59.7584 84.7309 57.627 83.4131 56.2371C82.2299 54.9893 80.7432 54.0348 79.0508 53.4707C78.2715 53.2109 77.4199 53.291 76.7031 53.6895L64.3906 60.5293C62.6973 61.4688 61.3438 62.9687 60.5801 64.75L57.6289 71.6348C56.8437 73.4687 56.4453 75.4102 56.4453 77.4062V97.0703C56.4453 98.6883 57.757 100 59.375 100H85.9375C87.5555 100 88.8672 98.6883 88.8672 97.0703V89.2324C88.8672 88.666 89.0293 88.1152 89.3379 87.6387L99.5293 71.9043C99.8359 71.4316 100 70.877 100 70.3125V29.6875C100 28.0695 98.6883 26.7578 97.0703 26.7578Z" fill="white"/>
</g>
<defs>
<clipPath id="clip0_2003_283">
<rect width="100" height="100" fill="white"/>
</clipPath>
</defs>
</svg>
