<svg width="85" height="87" viewBox="0 0 85 87" fill="none" xmlns="http://www.w3.org/2000/svg">
<g clip-path="url(#clip0_94_220)">
<path d="M74.209 76.4717H10.7917C4.84367 76.4717 0.00282234 71.5917 0.000664141 65.5933L7.88067e-08 63.9157C-0.000165937 63.2495 0.261973 62.6104 0.728975 62.1393C1.19598 61.6682 1.82949 61.4033 2.49023 61.4033H34.5454C35.9206 61.4033 37.0356 62.5277 37.0356 63.9147V64.7518H49.2369V63.9147C49.2369 62.5277 50.3519 61.4033 51.7271 61.4033H82.5098C83.885 61.4033 85 62.5277 85 63.9147V65.5892C84.9997 71.5898 80.159 76.4717 74.209 76.4717Z" fill="white"/>
<path d="M42.5 37.3853C42.2246 37.3853 41.9493 37.3393 41.6855 37.2472L34.2323 34.6456V42.3498L42.5402 44.0255L50.8481 42.3498V34.6177L43.3145 37.2474C43.0507 37.3391 42.7754 37.3853 42.5 37.3853Z" fill="white"/>
<path d="M30.1918 27.9201L42.5 32.2165L54.8082 27.9201L42.5 23.624L30.1918 27.9201Z" fill="white"/>
<path d="M77.5255 11.0869H7.47087C6.0956 11.0869 4.98064 12.2113 4.98064 13.5983V56.3806H34.5454C37.1302 56.3806 39.4126 57.7111 40.7543 59.729H45.5182C46.8599 57.7111 49.1423 56.3806 51.7271 56.3806H80.0157V13.5983C80.0157 12.2113 78.9007 11.0869 77.5255 11.0869ZM63.2364 30.2935L55.8286 32.8792V44.4086C55.8286 45.6057 54.9907 46.6365 53.8267 46.8713L43.0286 49.0493C42.8674 49.0817 42.7037 49.098 42.5402 49.098C42.3767 49.098 42.213 49.0817 42.0518 49.0493L31.2534 46.8713C30.0895 46.6365 29.2516 45.6057 29.2516 44.4086V32.9073L21.7635 30.2935C20.7606 29.9434 20.0879 28.9908 20.0879 27.9203C20.0879 26.8498 20.7606 25.8972 21.7637 25.5471L41.6855 18.5935C42.2133 18.4093 42.7869 18.4093 43.3145 18.5935L63.2364 25.5471C64.2394 25.8972 64.9121 26.8498 64.9121 27.9203C64.9121 28.9908 64.2394 29.9434 63.2364 30.2935Z" fill="white"/>
</g>
<defs>
<clipPath id="clip0_94_220">
<rect width="85" height="85.7206" fill="white" transform="translate(0 0.918945)"/>
</clipPath>
</defs>
</svg>
