<svg width="32" height="32" viewBox="0 0 32 32" fill="none" xmlns="http://www.w3.org/2000/svg">
<path d="M26.1473 13.5296L28.7504 5.41207C28.9895 4.663 28.7929 3.85019 28.2351 3.29238C27.6826 2.73457 26.8698 2.538 26.1154 2.77707L18.0032 5.38019L11.0864 0.397065C10.4435 -0.0651223 9.61479 -0.128872 8.90823 0.232378C8.20698 0.588315 7.77135 1.30019 7.76604 2.08644L7.73417 10.613L0.859792 15.6493C0.222292 16.1114 -0.0964584 16.8871 0.0257291 17.6627C0.147917 18.4436 0.689792 19.0811 1.43885 19.3255L9.5351 21.9924L12.202 30.0886C12.4464 30.8377 13.0839 31.3796 13.8648 31.5018C13.9764 31.5177 14.0826 31.5283 14.1942 31.5283C14.8582 31.5283 15.4798 31.2149 15.8782 30.673L20.9198 23.7933L29.441 23.7614C30.2273 23.7561 30.9392 23.3205 31.3004 22.6193C31.6564 21.918 31.5926 21.0839 31.1304 20.4411L26.1473 13.5296Z" fill="#008CFF"/>
</svg>
