<svg width="55" height="87" viewBox="0 0 55 87" fill="none" xmlns="http://www.w3.org/2000/svg">
<path d="M27.2577 0.960938C16.0694 0.960938 6.9669 10.0632 6.9669 21.2517C6.9669 32.4401 16.0694 41.5426 27.2577 41.5426C38.4461 41.5426 47.5484 32.4403 47.5484 21.2519C47.5484 10.0634 38.446 0.960938 27.2577 0.960938Z" fill="white"/>
<path d="M54.444 78.1484L51.2477 56.3614C50.4037 50.6083 47.5172 45.3461 43.1194 41.5425C33.8873 48.6909 20.8466 48.8603 11.3959 41.5425C6.9981 45.3461 4.11176 50.6083 3.26757 56.3614L0.0712677 78.1484C-0.514269 82.1396 2.58308 85.7192 6.61228 85.7192H47.903C51.9367 85.7192 55.0291 82.135 54.444 78.1484Z" fill="white"/>
</svg>
