<svg width="90" height="92" viewBox="0 0 90 92" fill="none" xmlns="http://www.w3.org/2000/svg">
<g clip-path="url(#clip0_94_226)">
<path d="M78.8908 0.441895H56.2967C50.1608 0.441895 45.1875 5.44843 45.1875 11.6453V27.8483L37.2423 38.5317C36.6428 39.3371 36.5467 40.4152 36.993 41.3161C37.44 42.217 38.3526 42.7862 39.3517 42.7862H78.8908C85.0163 42.7862 90 37.7603 90 31.5828V11.6453C90 5.46782 85.0163 0.441895 78.8908 0.441895ZM67.5934 34.2419C66.1384 34.2419 64.9567 33.0502 64.9567 31.5828C64.9567 30.1148 66.1384 28.9237 67.5934 28.9237C69.0491 28.9237 70.2301 30.1148 70.2301 31.5828C70.2301 33.0502 69.0491 34.2419 67.5934 34.2419ZM67.5934 25.6975C66.1377 25.6975 64.9567 24.5065 64.9567 23.0385C64.9567 21.5697 66.1377 20.3794 67.5934 20.3794C69.2544 20.3794 70.605 19.0166 70.605 17.3422C70.605 16.5307 70.2926 15.769 69.724 15.1963C69.1534 14.6202 68.3981 14.3044 67.5934 14.3044C65.9317 14.3044 64.5818 15.6658 64.5818 17.3388C64.5818 18.8075 63.4014 19.9992 61.945 19.9992C60.4893 19.9992 59.3083 18.8103 59.3083 17.3422V17.3388C59.3083 12.7339 63.0238 8.98624 67.5906 8.98624C69.8085 8.98624 71.889 9.85667 73.4525 11.4355C75.0167 13.0102 75.8784 15.109 75.8784 17.3422C75.8791 21.9492 72.1623 25.6975 67.5934 25.6975Z" fill="white"/>
<path d="M50.6483 48.8604H11.1092C4.98367 48.8604 0 53.8863 0 60.0638V80.0013C0 86.1788 4.98367 91.2047 11.1092 91.2047H33.7033C39.8392 91.2047 44.8125 86.1982 44.8125 80.0013V63.7982L52.7577 53.1149C53.3572 52.3095 53.4533 51.2314 53.007 50.3305C52.56 49.4296 51.6474 48.8604 50.6483 48.8604ZM22.4066 78.3878H13.9334C12.4777 78.3878 11.2967 77.1975 11.2967 75.7288C11.2967 74.26 12.4777 73.0697 13.9334 73.0697H22.4066C23.8623 73.0697 25.0433 74.26 25.0433 75.7288C25.0433 77.1975 23.8623 78.3878 22.4066 78.3878ZM30.8791 66.9954H13.9334C12.4777 66.9954 11.2967 65.805 11.2967 64.3363C11.2967 62.8676 12.4777 61.6772 13.9334 61.6772H30.8791C32.3348 61.6772 33.5159 62.8676 33.5159 64.3363C33.5159 65.805 32.3348 66.9954 30.8791 66.9954Z" fill="white"/>
<path d="M2.63761 42.7862H30.8787C32.335 42.7862 33.5154 41.5959 33.5154 40.1272V36.4155C33.5154 27.0873 26.0213 19.5242 16.7743 19.5159C21.99 19.5076 26.2156 15.2413 26.2156 9.97924C26.2156 4.71234 21.9818 0.441895 16.7585 0.441895C11.5352 0.441895 7.3013 4.71234 7.3013 9.97924C7.3013 15.2413 11.5269 19.5076 16.7427 19.5159C7.49494 19.5242 0.000888824 27.0873 0.000888824 36.4155V40.1272C0.000888824 41.5959 1.18123 42.7862 2.63761 42.7862Z" fill="white"/>
<path d="M73.2582 67.9343C78.474 67.926 82.6996 63.6598 82.6996 58.3977C82.6996 53.1301 78.4657 48.8604 73.2431 48.8604C68.0198 48.8604 63.7859 53.1301 63.7859 58.3977C63.7859 63.6598 68.0116 67.926 73.2273 67.9343C63.9796 67.9427 56.4848 75.5051 56.4848 84.8333V88.5456C56.4848 90.0143 57.6659 91.2047 59.1216 91.2047H87.3633C88.8197 91.2047 90 90.0143 90 88.5456V84.834C90 75.5058 82.506 67.9427 73.2582 67.9343Z" fill="white"/>
</g>
<defs>
<clipPath id="clip0_94_226">
<rect width="90" height="90.763" fill="white" transform="translate(0 0.441895)"/>
</clipPath>
</defs>
</svg>
