<svg width="32" height="31" viewBox="0 0 32 31" fill="none" xmlns="http://www.w3.org/2000/svg">
<path fill-rule="evenodd" clip-rule="evenodd" d="M17.1859 0.863388L20.094 9.87249C20.2632 10.3966 20.7315 10.7368 21.2823 10.7358L30.7492 10.7177C31.2991 10.7166 31.7668 11.0557 31.9368 11.5788C32.1067 12.1018 31.9276 12.651 31.4821 12.9733L23.8125 18.5231C23.3664 18.8459 23.1874 19.3966 23.3586 19.92L26.3014 28.9179C26.4724 29.4406 26.2943 29.9903 25.8494 30.3135C25.4045 30.6367 24.8268 30.6361 24.3826 30.312L16.7345 24.7329C16.2895 24.4083 15.7106 24.4083 15.2656 24.7329L7.61751 30.312C7.17326 30.6361 6.59548 30.6367 6.15065 30.3135C5.70574 29.9902 5.52769 29.4406 5.69865 28.9179L8.64138 19.92C8.81256 19.3966 8.6337 18.8459 8.18754 18.5231L0.517951 12.9734C0.0724531 12.651 -0.106632 12.1018 0.0632995 11.5788C0.233231 11.0557 0.700949 10.7166 1.2509 10.7177L10.7178 10.7358C11.2685 10.7368 11.7368 10.3966 11.906 9.87249L14.8141 0.863388C14.9831 0.340011 15.4501 0 16 0C16.55 0 17.017 0.340011 17.1859 0.863388Z" fill="#008CFF"/>
</svg>
